<svg 
          width="16" 
          height="12" fill="none" 
          xmlns="http://www.w3.org/2000/svg">
          <path d="M 3.1744142259870256 4.395013994287926e-7 L 12.825586591448102 4.395013994287926e-7 C 13.176507438932147 -0.00000876941457701547 13.479299851826259 -0.000016903503385901075 13.729906354631696 0.016013226130547037 C 13.993770463126046 0.03289124667018678 14.257698093141828 0.07001903841741573 14.518440246582031 0.17127201090081445 C 15.106507846287318 0.3996333460304462 15.573725700378418 0.837649874873966 15.817310878208705 1.3889629929095115 C 15.925314102854047 1.6334092063975965 15.964917212724684 1.8808420146829277 15.982921055385043 2.1282137133110592 C 16.000018526400837 2.3631563245728553 16.00001068115151 2.6470213514946814 16 2.9760074634546068 L 16 9.023991821289712 C 16.00001068115151 9.352977933249637 16.000018526400837 9.636843168787703 15.982921055385043 9.8717853330147 C 15.964917212724684 10.119157210456752 15.925314102854047 10.366589929335122 15.817310878208705 10.611036411044088 C 15.573725700378418 11.162349707893554 15.106507846287318 11.600365923812713 14.518440246582031 11.828727735779465 C 14.257698093141828 11.929980752966344 13.993770463126046 11.967108969396634 13.729906354631696 11.983986855825833 C 13.479300601141793 12.000017164273686 13.176510265895297 12.000008344648695 12.82559095110212 11.999999046325758 L 3.174409321376255 11.999999046325758 C 2.8234903812408443 12.000008344648695 2.520700522831508 12.000017164273686 2.270094871520996 11.983986855825833 C 2.0062317167009627 11.967108969396634 1.7423033373696464 11.929980752966344 1.4815607070922852 11.828727735779465 C 0.8934933798653739 11.600365923812713 0.4262756109237671 11.162349707893554 0.18269016061510357 10.611036411044088 C 0.07468698705945695 10.366589929335122 0.035083997462477 10.119157210456752 0.01708077426467623 9.8717853330147 C -0.000018032533781870558 9.636841738276342 -0.000009354042699020022 9.352975310645476 4.688015126573321e-7 9.023987052918509 L 4.688015126573321e-7 2.9760131855000505 C -0.000009354042699020022 2.6470245701452435 -0.000018032533781870558 2.3631579338981363 0.01708077426467623 2.1282137133110592 C 0.035083997462477 1.8808421040898877 0.07468698705945695 1.6334092063975965 0.18269016061510357 1.3889629929095115 C 0.4262756109237671 0.837649874873966 0.8934933798653739 0.3996333460304462 1.4815607070922852 0.17127201090081445 C 1.7423033373696464 0.07001903841741573 2.0062317167009627 0.03289124667018678 2.270094871520996 0.016013226130547037 C 2.520701663834708 -0.000016903503385901075 2.8234932082039967 -0.00000876941457701547 3.1744142259870256 4.395013994287926e-7 Z M 2.3790087018694197 1.512533663707283 C 2.19661021232605 1.5242007346217248 2.12714504131249 1.5441633139098037 2.093854086739676 1.5570911123680184 C 1.8978315932410104 1.633211564861809 1.7420924135616846 1.779217027289309 1.6608972549438477 1.9629881014038641 C 1.64710760223014 1.994198370565107 1.625814272889069 2.0593218507908304 1.6133693967546734 2.2303205148124285 C 1.6004341414996555 2.408055635646531 1.6000007901872906 2.6402826893104963 1.6000007901872906 3.0000004768371205 L 1.6000007901872906 8.99999928474432 C 1.6000007901872906 9.359717072270945 1.6004341414996555 9.591943947120988 1.6133693967546734 9.76967924676901 C 1.625814272889069 9.940677553162768 1.64710760223014 10.005801361214013 1.6608972549438477 10.037012256223976 C 1.7420924135616846 10.22078288330373 1.8978315932410104 10.36678804770803 2.093854086739676 10.44290841079486 C 2.12714504131249 10.455835941032195 2.19661021232605 10.475798728936514 2.3790087018694197 10.487465978664876 C 2.568592837878636 10.499592422540093 2.8163017545427596 10.499999165535039 3.200000762939453 10.499999165535039 L 12.799999782017299 10.499999165535039 C 13.183698790413992 10.499999165535039 13.431407724108015 10.499592422540093 13.62099129813058 10.487465978664876 C 13.803390264511108 10.475798728936514 13.872856361525399 10.455835941032195 13.906146458217075 10.44290841079486 C 14.102169990539549 10.36678804770803 14.257908642292023 10.22078288330373 14.339103698730469 10.037012256223976 C 14.352893065129008 10.005801361214013 14.374186490263257 9.940677553162768 14.386631556919642 9.76967924676901 C 14.399566431130681 9.591943947120988 14.400000435965401 9.359717072270945 14.400000435965401 8.99999928474432 L 14.400000435965401 3.0000004768371205 C 14.400000435965401 2.6402826893104963 14.399566431130681 2.408055635646531 14.386631556919642 2.2303205148124285 C 14.374186490263257 2.0593219401977905 14.352893065129008 1.994198370565107 14.339103698730469 1.9629881014038641 C 14.257908642292023 1.779217027289309 14.102169990539549 1.633211564861809 13.906146458217075 1.5570911123680184 C 13.872856361525399 1.5441633139098037 13.803390264511108 1.5242007346217248 13.62099129813058 1.512533663707283 C 13.431407724108015 1.5004068622042248 13.183698790413992 1.5000005960464005 12.799999782017299 1.5000005960464005 L 3.200000762939453 1.5000005960464005 C 2.8163017545427596 1.5000005960464005 2.568592837878636 1.5004068622042248 2.3790087018694197 1.512533663707283 Z" fill="rgb(255,255,255)"/>
        </svg>